# xmcd
#
# Track frame offsets:
#	150
#	9540
#	16830
#	30282
#	43130
#	53610
#	63872
#	77516
#	94451
#	107406
#	116801
#	126413
#	141911
#	157248
#	167760
#
# Disc length: 2440 seconds
#
# Revision: 1
# Processed by: cddbd v1.4PL0 Copyright (c) Steve Scherf et al.
# Submitted via: audiograbber 1.81.03
#
DISCID=c009860f
DTITLE=Various Artist - Fire on the Dobro
DYEAR=2002
DGENRE=Country
TTITLE0=Earl's Breakdown
TTITLE1=Dobros In Scotland
TTITLE2=Feel A Whole Lot Better
TTITLE3=Pride And Joy
TTITLE4=Little Burma Through The Bayou
TTITLE5=Josh-Away
TTITLE6=You're Still The One
TTITLE7=Rock Away
TTITLE8=Grapefruit--Juicyfruit
TTITLE9=False Hearted Lover
TTITLE10=Persuasion
TTITLE11=Ready To Run
TTITLE12=Whiskey Chitto
TTITLE13=Shig-A-Dig
TTITLE14=Sin Wagon
EXTD=
EXTT0=
EXTT1=
EXTT2=
EXTT3=
EXTT4=
EXTT5=
EXTT6=
EXTT7=
EXTT8=
EXTT9=
EXTT10=
EXTT11=
EXTT12=
EXTT13=
EXTT14=
PLAYORDER=
